<svg xmlns="http://www.w3.org/2000/svg" class="svg-logo" width="2400" height="2400" viewBox="0 0 630 430" style="height: auto;"><rect width="630" height="630" y="-100" rx="0" ry="0" fill="transparent" fill-opacity="0"></rect><g data-element="wrapper" transform="translate(-31.500008392337094 -21.50000000000213) scale(1.1000000000000099)"><g ><g data-element="icon" transform="scale(0.16980586492156255) translate(700.0511437537356 965.482917928486)"><path id="color_x5F_2_11_" d="M500.647,69.491l40.629-14.532c2.512-0.886,4.255,0.465,4.887,1.1    c0.631,0.631,2.002,2.368,1.1,4.893l-14.528,40.626C518.404,95.331,506.894,83.82,500.647,69.491z M482.169,76.1L405.285,103.6    l-2.266,36.271c-0.102,1.642,0.717,2.722,1.218,3.219c0.494,0.5,1.533,1.332,3.223,1.221l26.919-1.673    c0.491-0.032,0.982-0.045,1.469-0.045c6.289,0,12.349,2.493,16.821,6.965c4.816,4.82,7.338,11.485,6.914,18.287l-1.673,26.919    c-0.102,1.642,0.72,2.725,1.221,3.223c0.497,0.5,1.527,1.326,3.223,1.221l36.278-2.263l27.497-76.89    C506.305,111.79,490.435,95.92,482.169,76.1z" fill="#ffffff" fill-opacity="1"></path> <path id="color_x5F_1_14_" d="M557.869,44.345c-6.703-6.703-16.406-8.884-25.335-5.69l-142.06,50.813    c-0.077,0.027-0.135,0.083-0.211,0.113c-0.222,0.085-0.411,0.233-0.628,0.335c-0.875,0.414-1.659,0.934-2.36,1.567    c-0.131,0.118-0.3,0.157-0.426,0.282L223.539,255.078c-3.825,3.822-3.825,10.025,0,13.847l109.763,109.763    c1.913,1.913,4.418,2.869,6.923,2.869c2.505,0,5.011-0.956,6.923-2.869L510.46,215.377c0.126-0.126,0.166-0.297,0.284-0.428    c0.628-0.696,1.144-1.475,1.557-2.343c0.106-0.223,0.258-0.418,0.345-0.647c0.029-0.075,0.084-0.133,0.112-0.209L563.565,69.68    C566.756,60.755,564.572,51.045,557.869,44.345z M498.629,196.945l-36.278,2.263c-1.696,0.105-2.725-0.72-3.223-1.221    c-0.5-0.497-1.323-1.581-1.221-3.223l1.673-26.919c0.424-6.802-2.097-13.467-6.914-18.287c-4.472-4.472-10.532-6.965-16.821-6.965    c-0.488,0-0.979,0.013-1.469,0.045l-26.919,1.673c-1.689,0.112-2.729-0.72-3.223-1.221c-0.5-0.497-1.32-1.578-1.218-3.219    l2.266-36.271L482.169,76.1c8.265,19.82,24.136,35.69,43.956,43.955L498.629,196.945z M547.262,60.951l-14.528,40.626    c-14.329-6.246-25.84-17.757-32.087-32.086l40.629-14.532c2.512-0.886,4.255,0.465,4.886,1.1    C546.793,56.689,548.164,58.426,547.262,60.951z M212.438,324.96L96.242,441.156c-8.955,8.955-23.962,6.8-30.154-4.246    c-20.277-36.171-31.096-77.093-31.096-119.699c0-135.412,110.166-245.578,245.578-245.578c21.481,0.001,42.319,2.793,62.19,8    l-57.378,57.378c-6.341-0.167-12.756-0.037-19.242,0.471c-87.166,6.817-157.919,77.027-165.211,164.154    c-1.984,23.706,0.653,46.908,7.353,68.7l74.767-74.767c8.116-8.116,21.275-8.116,29.391,0    C220.554,303.685,220.554,316.844,212.438,324.96z M107.616,524.002L259.548,372.07c8.116-8.116,8.116-21.275,0-29.391l0,0    c-8.116-8.116-21.275-8.116-29.391,0L78.225,494.611c-8.116,8.116-8.116,21.275,0,29.391l0,0    C86.341,532.118,99.5,532.118,107.616,524.002z M526.15,317.213c-0.001-18.916-2.222-37.312-6.291-55.011l-59.061,59.061    c-0.008,0.35,0.008,0.696-0.002,1.046c-2.578,92.963-77.593,170.043-170.464,174.94c-19.199,1.012-37.99-1.071-55.934-5.812    l72.259-72.259c8.116-8.116,8.116-21.275,0-29.391s-21.275-8.116-29.391,0L162.353,504.701c-9.077,9.077-6.763,24.402,4.611,30.352    c34.648,18.125,73.386,27.738,113.607,27.738C415.984,562.791,526.15,452.626,526.15,317.213z" fill="#0072ff" fill-opacity="1"></path></g><path d="M233.85 228.78L253.35 228.78L257.77 241.19L264.99 241.19L246.98 193.88L241.13 193.88L222.41 241.19L229.43 241.19L233.85 228.78ZM235.41 223.06L244.25 200.38L251.60 223.06L235.41 223.06ZM274.91 195.56L274.91 201.94L281.54 201.94L281.54 195.56L274.91 195.56ZM281.21 244.12L281.21 207.07L275.17 207.07L275.17 245.68Q275.17 252.25 265.29 252.25L265.29 252.25L266.00 256.54Q266.46 256.60 268.02 256.60L268.02 256.60Q281.21 256.60 281.21 244.12L281.21 244.12ZM294.19 195.56L294.19 201.94L300.69 201.94L300.69 195.56L294.19 195.56ZM294.64 207.13L294.64 241.19L300.56 241.19L300.56 207.13L294.64 207.13ZM339.77 241.19L339.77 204.47L354.20 239.38L359.92 239.38L373.70 204.47L373.70 241.19L379.94 241.19L379.94 193.88L372.53 193.88L356.99 232.62L341.20 193.88L333.79 193.88L333.79 241.19L339.77 241.19ZM394.60 226.38L417.94 226.38Q417.94 212.01 411.31 208.05L411.31 208.05Q408.51 206.55 404.68 206.55L404.68 206.55Q397.66 206.55 393.17 211.62L393.17 211.62Q388.69 216.69 388.69 224.23L388.69 224.23Q388.69 231.84 393.11 236.84L393.11 236.84Q397.46 241.78 404.55 241.78L404.55 241.78Q411.63 241.78 416.96 238.40L416.96 238.40L416.96 232.16Q412.35 236.25 404.61 236.25L404.61 236.25Q400.26 236.25 397.66 233.98L397.66 233.98Q395.12 231.77 394.60 226.38L394.60 226.38ZM404.48 212.34L404.61 212.34Q408.84 212.34 410.72 214.48L410.72 214.48Q412.54 216.63 412.87 221.24L412.87 221.24L394.60 221.24Q395.77 212.34 404.48 212.34L404.48 212.34ZM439.88 241.97L439.88 241.97Q446.77 241.97 449.83 236.78L449.83 236.78L449.83 241.19L455.61 241.19L455.61 192.90L449.83 192.90L449.83 211.16Q445.67 206.22 439.88 206.22L439.88 206.22Q432.99 206.22 429.16 210.84L429.16 210.84Q425.39 215.39 425.39 223.51L425.39 223.51Q425.39 231.64 429.16 236.84L429.16 236.84Q432.99 241.97 439.88 241.97L439.88 241.97ZM449.83 221.56L449.83 221.56L449.83 226.05Q449.37 231.12 447.16 233.59L447.16 233.59Q444.95 236.06 440.27 236.06L440.27 236.06Q435.66 236.06 433.51 232.75L433.51 232.75Q431.43 229.43 431.37 224.03L431.37 224.03Q431.50 218.12 433.97 215.06L433.97 215.06Q436.37 212.07 440.53 212.07L440.53 212.07Q449.31 212.07 449.83 221.56L449.83 221.56ZM466.31 195.56L466.31 201.94L472.81 201.94L472.81 195.56L466.31 195.56ZM466.77 207.13L466.77 241.19L472.68 241.19L472.68 207.13L466.77 207.13ZM504.31 217.08L504.31 217.08L504.18 217.99Q488.32 218.31 484.49 224.36L484.49 224.36Q482.54 227.61 482.54 231.77L482.54 231.77L482.54 231.97Q482.54 236.00 485.79 238.85L485.79 238.85Q489.04 241.72 495.34 241.72L495.34 241.72Q501.06 241.06 504.18 235.67L504.18 235.67Q504.44 239.44 507.11 241L507.11 241L511.85 241.13Q509.90 237.23 509.90 234.63L509.90 234.63L509.90 219.94Q509.90 206.03 497.10 206.03L497.10 206.03L496.77 206.03Q488.00 206.03 482.86 211.16L482.86 211.16L486.11 214.28Q490.01 210.65 497.16 210.65L497.16 210.65Q504.31 210.65 504.31 217.08ZM489.49 234.63L489.49 234.63Q488.52 233.26 488.52 231.19L488.52 231.19Q488.52 227.41 492.55 225.01L492.55 225.01Q496.58 222.54 504.18 222.28L504.18 222.28L504.18 227.41Q504.18 228.13 503.73 229.43L503.73 229.43Q502.62 233.13 500.41 234.56L500.41 234.56Q498.27 236.06 494.37 236.06L494.37 236.06Q490.40 236.06 489.49 234.63L489.49 234.63Z" data-element="company-name" data-text-path="" data-text="Aji Media" data-font-family="JP Sawarabi Gothic" fill="#0072ff" fill-opacity="1"></path></g></g></svg>